<svg version="1.1" xmlns="http://www.w3.org/2000/svg" xmlns:xlink="http://www.w3.org/1999/xlink" width="512.000000pt" height="512.000000pt" viewBox="0,0,256,256"><g fill="#ffffff" fill-rule="nonzero" stroke="none" stroke-width="1" stroke-linecap="butt" stroke-linejoin="miter" stroke-miterlimit="10" stroke-dasharray="" stroke-dashoffset="0" font-family="none" font-weight="none" font-size="none" text-anchor="none" style="mix-blend-mode: normal"><g transform="translate(0.10398,0.10562) scale(0.5,0.5)"><g transform="translate(0,512) scale(0.1,-0.1)"><path d="M2340,4949c-255,-29 -518,-116 -735,-244c-437,-257 -756,-690 -886,-1204c-134,-527 -37,-1095 263,-1542c70,-104 1267,-1629 1332,-1697c22,-24 66,-55 96,-70c46,-23 68,-27 135,-27c100,1 163,26 227,93c41,41 1137,1430 1294,1637c339,450 463,1000 348,1548c-61,290 -205,591 -391,819c-82,101 -267,274 -374,351c-189,135 -475,259 -709,306c-192,39 -417,51 -600,30zM2710,4630c204,-21 364,-67 545,-155c440,-214 760,-641 861,-1150c28,-139 26,-445 -4,-585c-45,-208 -144,-437 -256,-593c-41,-57 -1205,-1535 -1291,-1638l-22,-27l-614,780c-338,429 -638,814 -667,856c-67,96 -162,289 -201,407c-105,320 -106,682 0,1008c40,127 155,353 236,466c322,450 857,688 1413,631z"></path><path d="M2381,3959c-267,-52 -508,-241 -626,-490c-59,-125 -78,-214 -78,-369c0,-105 5,-152 21,-212c106,-392 449,-658 847,-658c340,0 644,193 790,501c60,127 78,214 78,374c0,123 -3,150 -26,228c-99,324 -346,556 -662,622c-80,16 -270,19 -344,4zM2713,3628c263,-80 431,-365 374,-634c-90,-421 -598,-587 -915,-298c-179,163 -229,432 -120,654c43,90 160,206 248,247c136,64 272,74 413,31z"></path></g></g></g></svg>