<svg version="1.1" xmlns="http://www.w3.org/2000/svg" xmlns:xlink="http://www.w3.org/1999/xlink" width="512.000000pt" height="512.000000pt" viewBox="0,0,256,256"><g fill="#ffffff" fill-rule="nonzero" stroke="none" stroke-width="1" stroke-linecap="butt" stroke-linejoin="miter" stroke-miterlimit="10" stroke-dasharray="" stroke-dashoffset="0" font-family="none" font-weight="none" font-size="none" text-anchor="none" style="mix-blend-mode: normal"><g transform="translate(-0.00181,-0.25962) scale(0.5,0.5)"><g transform="translate(0,512) scale(0.1,-0.1)"><path d="M1145,4624c-244,-52 -438,-249 -489,-497c-20,-96 -20,-158 0,-254c41,-199 166,-360 349,-448c77,-37 196,-65 275,-65c79,0 198,28 275,65c183,88 308,249 349,448c20,96 20,158 0,255c-71,347 -411,569 -759,496zM1416,4290c62,-30 123,-92 155,-155c35,-72 35,-198 0,-270c-32,-63 -93,-124 -156,-156c-41,-20 -65,-24 -135,-24c-70,0 -94,4 -135,24c-178,88 -238,304 -130,468c38,57 105,109 169,129c61,20 172,12 232,-16z"></path><path d="M2172,4623c-18,-9 -45,-32 -60,-51l-27,-35l-3,-669l-2,-668h-683c-743,0 -744,0 -849,-57c-58,-31 -147,-123 -177,-181c-48,-94 -51,-128 -51,-587c0,-448 3,-484 45,-565c45,-88 134,-165 226,-195l49,-17v-381c0,-287 4,-394 14,-432c40,-151 152,-259 305,-295c93,-22 219,1 294,52c27,19 27,19 53,-1c35,-28 124,-60 187,-67c159,-19 334,83 405,234l27,57l-3,818l-2,817h80h80v-256c0,-286 3,-302 68,-352c33,-25 44,-27 144,-30l108,-4v-575c0,-640 -2,-617 68,-671c51,-39 133,-39 184,0c70,54 68,31 68,672v576h720h720v-576c0,-641 -2,-618 68,-672c51,-39 133,-39 184,0c70,54 68,31 68,671v575l108,4c100,3 111,5 144,30c73,56 68,-52 68,1408c0,1461 5,1352 -68,1408l-35,27l-1246,2c-1138,2 -1249,1 -1279,-14zM4480,3200v-1120h-1040h-1040v160v160h48c26,0 77,7 113,14c214,46 399,245 411,442c2,34 11,60 29,84c26,34 410,683 443,747c23,46 20,99 -9,148c-52,89 -180,102 -249,26c-11,-12 -106,-168 -212,-349c-172,-292 -195,-327 -216,-324c-13,2 -98,6 -190,9l-168,5v559v559h1040h1040zM2701,2851c-26,-37 -80,-77 -139,-104c-45,-21 -64,-22 -392,-27c-340,-5 -346,-5 -394,-29c-63,-31 -116,-84 -147,-147l-24,-49l-5,-827l-5,-827l-22,-22c-31,-32 -80,-30 -110,5l-23,27v397c0,393 0,398 -22,442c-29,55 -75,84 -138,84c-63,0 -109,-29 -137,-84c-23,-44 -23,-49 -23,-443v-398l-25,-24c-32,-33 -78,-33 -110,0l-25,24v412v411l46,51c55,61 88,123 103,195c7,33 11,172 11,363c0,347 -2,356 -68,407c-29,22 -46,27 -92,27c-46,0 -63,-5 -92,-27c-66,-51 -68,-61 -68,-401c0,-293 -1,-305 -21,-331c-16,-20 -29,-26 -59,-26c-30,0 -43,6 -59,26c-20,26 -21,37 -21,431c0,442 0,440 59,476c24,15 119,16 1024,17h998z"></path></g></g></g></svg>