<svg version="1.1" xmlns="http://www.w3.org/2000/svg" xmlns:xlink="http://www.w3.org/1999/xlink" width="512.000000pt" height="512.000000pt" viewBox="0,0,256,256"><g fill="#ffffff" fill-rule="nonzero" stroke="none" stroke-width="1" stroke-linecap="butt" stroke-linejoin="miter" stroke-miterlimit="10" stroke-dasharray="" stroke-dashoffset="0" font-family="none" font-weight="none" font-size="none" text-anchor="none" style="mix-blend-mode: normal"><g transform="translate(-0.1,-0.06223) scale(0.5,0.5)"><g transform="translate(0,512) scale(0.1,-0.1)"><path d="M1182,5109c-45,-13 -108,-80 -121,-126c-6,-21 -11,-88 -11,-149v-112l-192,-4c-173,-4 -202,-8 -283,-32c-256,-77 -462,-281 -542,-541l-28,-90v-1695v-1695l28,-90c80,-259 283,-462 542,-542l90,-28h866h865l41,27c62,41 88,90 88,168c0,78 -26,127 -88,168l-41,27l-840,5l-841,5l-58,23c-111,45 -195,133 -234,246c-17,48 -18,138 -18,1686c0,1548 1,1638 18,1686c39,113 124,202 234,245c50,19 82,23 224,27l167,4l3,-134c4,-119 6,-137 28,-171c13,-21 42,-50 64,-65c34,-23 52,-27 107,-27c55,0 73,4 107,27c22,15 51,44 64,65c22,34 24,52 27,171l4,132h448h448l4,-133c3,-125 5,-136 30,-174c41,-63 90,-88 169,-88c54,0 72,5 106,27c22,15 51,44 64,65c22,34 24,52 27,171l4,132h453h453l4,-133c3,-125 5,-136 30,-174c41,-63 90,-88 169,-88c54,0 72,5 106,27c22,15 51,44 64,65c22,34 24,52 28,171l3,134l172,-4c145,-4 179,-7 225,-26c111,-44 189,-121 233,-229l23,-58l5,-645l5,-645l24,-38c13,-21 42,-50 64,-65c34,-22 52,-27 106,-27c79,0 128,25 169,88l27,41v670v671l-28,90c-80,259 -286,464 -542,541c-81,24 -110,28 -287,32l-196,4l-4,132c-3,124 -5,135 -30,173c-41,62 -90,88 -168,88c-78,0 -127,-26 -168,-88c-25,-38 -27,-49 -30,-174l-4,-133h-453h-453l-4,133c-3,118 -5,136 -27,170c-13,21 -42,50 -64,65c-34,22 -52,27 -106,27c-79,0 -128,-25 -169,-88c-25,-38 -27,-49 -30,-174l-4,-133h-448h-448l-4,133c-3,125 -5,136 -30,174c-15,22 -43,50 -62,62c-41,26 -125,35 -174,20z"></path><path d="M1182,3209c-48,-14 -109,-80 -123,-131c-23,-89 12,-182 88,-229c57,-36 154,-34 210,3c62,41 88,90 88,168c0,77 -26,127 -85,166c-43,29 -125,39 -178,23z"></path><path d="M2052,3209c-48,-14 -109,-80 -123,-131c-23,-89 12,-182 88,-229c57,-36 154,-34 210,3c62,41 88,90 88,168c0,77 -26,127 -85,166c-43,29 -125,39 -178,23z"></path><path d="M2922,3209c-48,-14 -109,-80 -123,-131c-23,-89 12,-182 88,-229c57,-36 154,-34 210,3c62,41 88,90 88,168c0,77 -26,127 -85,166c-43,29 -125,39 -178,23z"></path><path d="M3792,3209c-48,-14 -109,-80 -123,-131c-23,-89 12,-182 88,-229c57,-36 154,-34 210,3c62,41 88,90 88,168c0,77 -26,127 -85,166c-43,29 -125,39 -178,23z"></path><path d="M3735,2405c-264,-41 -505,-164 -687,-351c-96,-97 -162,-192 -224,-319c-164,-337 -164,-713 0,-1050c123,-251 311,-439 560,-560c339,-165 713,-165 1052,0c249,121 437,309 560,560c164,337 164,713 0,1050c-123,251 -311,439 -560,560c-222,108 -469,147 -701,110zM4052,2006c390,-77 668,-407 668,-796c0,-389 -278,-719 -668,-796c-277,-54 -585,59 -765,281c-248,306 -248,724 0,1030c180,221 488,335 765,281z"></path><path d="M3842,1809c-47,-14 -109,-80 -122,-129c-7,-27 -10,-129 -8,-289l3,-248l27,-40c15,-22 44,-51 65,-64c37,-23 44,-24 248,-24c204,0 211,1 248,24c21,13 50,42 65,64c37,56 39,153 3,210c-39,63 -89,90 -181,95l-78,4l-4,137c-3,122 -5,140 -27,174c-47,76 -151,113 -239,86z"></path><path d="M1182,2339c-48,-14 -109,-80 -123,-131c-23,-89 12,-182 88,-229c57,-36 154,-34 210,3c62,41 88,90 88,168c0,77 -26,127 -85,166c-43,29 -125,39 -178,23z"></path><path d="M2052,2339c-48,-14 -109,-80 -123,-131c-23,-89 12,-182 88,-229c57,-36 154,-34 210,3c62,41 88,90 88,168c0,77 -26,127 -85,166c-43,29 -125,39 -178,23z"></path><path d="M1182,1469c-48,-14 -109,-80 -123,-131c-23,-89 12,-182 88,-229c57,-36 154,-34 210,3c62,41 88,90 88,168c0,77 -26,127 -85,166c-43,29 -125,39 -178,23z"></path><path d="M2052,1469c-48,-14 -109,-80 -123,-131c-23,-89 12,-182 88,-229c57,-36 154,-34 210,3c62,41 88,90 88,168c0,77 -26,127 -85,166c-43,29 -125,39 -178,23z"></path></g></g></g></svg>